# xmcd
#
# Track frame offsets:
#	150
#	24514
#	61297
#	75843
#	111582
#	127420
#	142298
#	163566
#	184997
#	220385
#
# Disc length: 4794 seconds
#
# Revision: 1
# Processed by: cddbd v1.5.2PL0 Copyright (c) Steve Scherf et al.
# Submitted via: audiograbber 1.83.01
#
DISCID=9812b80a
DTITLE=Grateful Dead - 69-08-29 Family Dog at the Great Highway, San Francisco 
DTITLE=CA
DYEAR=1900
DGENRE=
TTITLE0=Casey Jones
TTITLE1=Easy Wind
TTITLE2=Me and My Uncle
TTITLE3=High Time
TTITLE4=New Orleans
TTITLE5=Searchin'
TTITLE6=Good Lovin'
TTITLE7=Dire Wolf
TTITLE8=King Bee
TTITLE9=Turn On Your Lovelight
EXTD=
EXTT0=
EXTT1=
EXTT2=
EXTT3=
EXTT4=
EXTT5=
EXTT6=
EXTT7=
EXTT8=
EXTT9=
PLAYORDER=
